<svg xmlns="http://www.w3.org/2000/svg" data-name="Layer 1" viewBox="0 0 64 64" id="godown"><rect width="14.37" height="19.52" x="24.82" y="44.48" fill="#fff"></rect><path fill="#fff" d="M50.21,27.51a1,1,0,0,1-.53-.91v-16L32,0,14.31,10.64v16a1,1,0,0,1-.53.91L3.61,33.08V64H22.75V43.44a1,1,0,0,1,1-1H40.22a1,1,0,0,1,1,1V64H60.39V33.08ZM32,25.09a6.43,6.43,0,1,1,6.43-6.43A6.44,6.44,0,0,1,32,25.09Z"></path><path fill="#fff" d="M36.35,18.66A4.35,4.35,0,1,1,32,14.3,4.36,4.36,0,0,1,36.35,18.66Z"></path></svg>