<svg xmlns="http://www.w3.org/2000/svg" viewBox="0 0 64 64" id="storehouse-people"><rect width="13.99" height="3" x="25" y="19.5" fill="#fff"></rect><polygon fill="#fff" points="21 4.5 43 4.5 43 7.5 42 7.5 22 7.5 21 7.5 21 4.5"></polygon><rect width="13.99" height="3" x="25" y="10.5" fill="#fff"></rect><rect width="13.99" height="3" x="25" y="16.5" fill="#fff"></rect><rect width="13.99" height="3" x="25" y="13.5" fill="#fff"></rect><polygon fill="#fff" points="42 7.5 42 22.5 38.99 22.5 38.99 19.5 38.99 16.5 38.99 13.5 38.99 10.5 25 10.5 25 13.5 25 16.5 25 19.5 25 22.5 22 22.5 22 7.5 42 7.5"></polygon><path fill="#fff" d="M52,52.5l2-1h3a4.99543,4.99543,0,0,1,5,5v3H38v-3a4.98906,4.98906,0,0,1,5-5h3l2,1,2-1Z"></path><path fill="#fff" d="M59,36.52,56,34.5a13.3235,13.3235,0,0,1-5.5,1,23.0982,23.0982,0,0,1-6.5-1l-3,2.02V33.5a7.99141,7.99141,0,0,1,8-8h6v4a3.99038,3.99038,0,0,1,4,3.99v3.03Z"></path><path fill="#fff" d="M59,39.5a9.00008,9.00008,0,0,1-18,.05V36.52l3-2.02a23.0982,23.0982,0,0,0,6.5,1,13.3235,13.3235,0,0,0,5.5-1l3,2.02Z"></path><path fill="#fff" d="M50,48.5a8.95628,8.95628,0,0,0,4-.94V51.5l-2,1-2-1-2,1-2-1V47.56A8.95628,8.95628,0,0,0,50,48.5Z"></path><path fill="#fff" d="M23,36.5c-1.94-2.53-3.35-3.13-4.98-2.98L21,29.16a9.472,9.472,0,0,1,2,5.83Z"></path><path fill="#fff" d="M16,52.5l2-1h3a4.98906,4.98906,0,0,1,5,5v3H2v-3a4.99543,4.99543,0,0,1,5-5h3l2,1,2-1Z"></path><path fill="#ffce54" d="M21,29.16l-2.98,4.36c-2.66.26-5.91,2.5-13.02,1.61-.32-.04-.66-.09-1-.14a9.50474,9.50474,0,0,1,17-5.83Z"></path><path fill="#f5f7fa" d="M14,48.5a8.95628,8.95628,0,0,0,4-.94V51.5l-2,1-2-1-2,1-2-1V47.56A8.95628,8.95628,0,0,0,14,48.5Z"></path><path fill="#eac6bb" d="M23,39.5a9,9,0,0,1-18,0V35.13c7.11.89,10.36-1.35,13.02-1.61,1.63-.15,3.04.45,4.98,2.98Z"></path><path d="M54.99805 26.49512h-6a1 1 0 110-2h6a1 1 0 010 2zM37.99805 57.49512a.99942.99942 0 01-1-1 6.00655 6.00655 0 016-6 1 1 0 010 2 4.004 4.004 0 00-4 4A.99943.99943 0 0137.99805 57.49512z"></path><path d="M45.99805 52.49512h-3a1 1 0 110-2h3a1 1 0 010 2zM37.99805 60.49512a.99942.99942 0 01-1-1v-3a1 1 0 012 0v3A.99943.99943 0 0137.99805 60.49512zM61.99805 57.49512a.99942.99942 0 01-1-1 4.004 4.004 0 00-4-4 1 1 0 110-2 6.00656 6.00656 0 016 6A.99943.99943 0 0161.99805 57.49512z"></path><path d="M56.99805 52.49512h-3a1 1 0 110-2h3a1 1 0 010 2zM61.99805 60.49512a.99942.99942 0 01-1-1v-3a1 1 0 012 0v3A.99943.99943 0 0161.99805 60.49512zM45.99805 52.49512a.99942.99942 0 01-1-1V47.56055a1 1 0 012 0v3.93457A.99943.99943 0 0145.99805 52.49512z"></path><path d="M53.99805,52.49512a.99942.99942,0,0,1-1-1V47.56055a1,1,0,0,1,2,0v3.93457A.99943.99943,0,0,1,53.99805,52.49512Z"></path><path d="M49.99805,49.49512a10.0099,10.0099,0,0,1-10-9.99707,1,1,0,0,1,2,0,8,8,0,0,0,16,0,1,1,0,0,1,2,0A10.0099,10.0099,0,0,1,49.99805,49.49512Z"></path><path d="M40.99805 40.54688a.99942.99942 0 01-1-1V33.49512a1 1 0 012 0v6.05176A.99943.99943 0 0140.99805 40.54688zM58.99805 40.49805a.99942.99942 0 01-1-1V33.49512a1 1 0 012 0v6.00293A.99943.99943 0 0158.99805 40.49805z"></path><path d="M58.99805,34.49316a.99942.99942,0,0,1-1-1,3.002,3.002,0,0,0-3-2.99707,1,1,0,0,1,0-2,5.004,5.004,0,0,1,5,4.99707A.99942.99942,0,0,1,58.99805,34.49316Z"></path><path d="M54.99805 30.49609a.99942.99942 0 01-1-1v-4.001a1 1 0 112 0v4.001A.99942.99942 0 0154.99805 30.49609zM40.99805 34.49512a.99942.99942 0 01-1-1 9.00984 9.00984 0 019-9 1 1 0 010 2 7.00848 7.00848 0 00-7 7A.99943.99943 0 0140.99805 34.49512zM58.99707 37.52148a1.00042 1.00042 0 01-.55859-.17089l-3-2.02637a1.00026 1.00026 0 011.11914-1.6582l3 2.02636a1.00006 1.00006 0 01-.56055 1.8291z"></path><path d="M50.49805,36.49512a23.93215,23.93215,0,0,1-6.81543-1.05078,1.0001,1.0001,0,0,1,.62988-1.89844,22.2705,22.2705,0,0,0,6.18555.94922,12.60165,12.60165,0,0,0,5.05859-.89746,1.00036,1.00036,0,0,1,.8877,1.793A14.26791,14.26791,0,0,1,50.49805,36.49512Z"></path><path d="M40.999 37.52148a1.00006 1.00006 0 01-.56054-1.8291l3-2.02636a1.00026 1.00026 0 011.11914 1.6582l-3 2.02637A1.00045 1.00045 0 0140.999 37.52148zM47.99707 53.49512a1.00108 1.00108 0 01-.44629-.10547l-2-1a1.00011 1.00011 0 01.89453-1.78906l2 1a1 1 0 01-.44824 1.89453z"></path><path d="M47.999 53.49512a1 1 0 01-.44824-1.89453l2-1a1.00011 1.00011 0 11.89453 1.78906l-2 1A1.001 1.001 0 0147.999 53.49512zM51.999 53.49512a1 1 0 01-.44824-1.89453l2-1a1.00011 1.00011 0 11.89453 1.78906l-2 1A1.001 1.001 0 0151.999 53.49512z"></path><path d="M51.99707 53.49512a1.00108 1.00108 0 01-.44629-.10547l-2-1a1.00011 1.00011 0 01.89453-1.78906l2 1a1 1 0 01-.44824 1.89453zM49.99805 22.49609h0a1 1 0 01-1-1l.002-6.998a1 1 0 011-1h0a1.00005 1.00005 0 011 1l-.002 6.998A1.00005 1.00005 0 0149.99805 22.49609z"></path><path d="M50 15.49805H46a1 1 0 010-2h4a1 1 0 010 2zM5.002 40.45508a.99943.99943 0 01-1-1V35.13477a1 1 0 012 0v4.32031A.99942.99942 0 015.002 40.45508zM23.002 40.49512a.99943.99943 0 01-1-1v-4.502a1 1 0 012 0v4.502A.99942.99942 0 0123.002 40.49512z"></path><path d="M23.002,35.99316a.99942.99942,0,0,1-1-1,8.5,8.5,0,0,0-17,0,1,1,0,0,1-2,0,10.5,10.5,0,0,1,21,0A.99942.99942,0,0,1,23.002,35.99316Z"></path><path d="M23.00293,37.49512a.99941.99941,0,0,1-.79492-.3916c-2.46094-3.21289-3.56738-2.88086-6.52442-2.002a23.98146,23.98146,0,0,1-11.83789.87891.99959.99959,0,0,1,.3125-1.97461,22.21476,22.21476,0,0,0,10.95508-.82031c3.126-.93262,5.38574-1.60254,8.68262,2.70117a1,1,0,0,1-.793,1.6084Z"></path><path d="M18.02246 34.52246a1.00007 1.00007 0 01-.82422-1.56445l2.97852-4.3584a.99978.99978 0 111.65039 1.12891l-2.97852 4.35839A.99786.99786 0 0118.02246 34.52246zM2.002 57.49512a.99943.99943 0 01-1-1 6.00656 6.00656 0 016-6 1 1 0 110 2 4.004 4.004 0 00-4 4A.99942.99942 0 012.002 57.49512z"></path><path d="M10.002 52.49512h-3a1 1 0 010-2h3a1 1 0 010 2zM2.002 60.49512a.99943.99943 0 01-1-1v-3a1 1 0 012 0v3A.99942.99942 0 012.002 60.49512zM26.002 57.49512a.99943.99943 0 01-1-1 4.004 4.004 0 00-4-4 1 1 0 010-2 6.00655 6.00655 0 016 6A.99942.99942 0 0126.002 57.49512z"></path><path d="M21.002 52.49512h-3a1 1 0 010-2h3a1 1 0 110 2zM26.002 60.49512a.99943.99943 0 01-1-1v-3a1 1 0 012 0v3A.99942.99942 0 0126.002 60.49512zM10.002 52.49512a.99943.99943 0 01-1-1V47.56055a1 1 0 012 0v3.93457A.99942.99942 0 0110.002 52.49512z"></path><path d="M18.002,52.49512a.99943.99943,0,0,1-1-1V47.56055a1,1,0,0,1,2,0v3.93457A.99942.99942,0,0,1,18.002,52.49512Z"></path><path d="M14 49.49512a10.00885 10.00885 0 01-9.998-9.99707 1 1 0 012 0 8 8 0 0016 0 1 1 0 012 0A10.01094 10.01094 0 0114 49.49512zM12.001 53.49512a1.001 1.001 0 01-.44629-.10547l-2-1a1.00011 1.00011 0 11.89453-1.78906l2 1a1 1 0 01-.44824 1.89453z"></path><path d="M12.00293 53.49512a1 1 0 01-.44824-1.89453l2-1a1.00011 1.00011 0 01.89453 1.78906l-2 1A1.00108 1.00108 0 0112.00293 53.49512zM16.00293 53.49512a1 1 0 01-.44824-1.89453l2-1a1.00011 1.00011 0 01.89453 1.78906l-2 1A1.00108 1.00108 0 0116.00293 53.49512z"></path><path d="M16.001 53.49512a1.001 1.001 0 01-.44629-.10547l-2-1a1.00011 1.00011 0 11.89453-1.78906l2 1a1 1 0 01-.44824 1.89453zM14.00391 22.49609a1 1 0 01-1-1l-.002-6.998a1.00005 1.00005 0 011-1h0a1 1 0 011 1l.002 6.998a1.00005 1.00005 0 01-1 1z"></path><path d="M18.002 15.49805h-4a1 1 0 010-2h4a1 1 0 010 2zM42.001 23.50488h-19.998a.99942.99942 0 01-1-1v-15a.99943.99943 0 011-1H42.001a.99943.99943 0 011 1v15A.99942.99942 0 0142.001 23.50488zm-18.998-2H41.001v-13h-17.998z"></path><path d="M38.99219,23.49512H25.001a.99942.99942,0,0,1-1-1V10.50488a.99942.99942,0,0,1,1-1H38.99219a.99943.99943,0,0,1,1,1V22.49512A.99943.99943,0,0,1,38.99219,23.49512Zm-12.99121-2H37.99219V11.50488H26.001Z"></path><path d="M39.00586 20.50488H25.001a1 1 0 010-2H39.00586a1 1 0 010 2zM39.00586 17.50488H25.001a1 1 0 010-2H39.00586a1 1 0 010 2zM39.00586 14.50488H25.001a1 1 0 010-2H39.00586a1 1 0 010 2zM43.00293 8.50488H21.001a.99942.99942 0 01-1-1v-3a.99942.99942 0 011-1h22.002a.99943.99943 0 011 1v3A.99942.99942 0 0143.00293 8.50488zm-21.00195-2h20.002v-1H22.001z"></path></svg>