<svg xmlns="http://www.w3.org/2000/svg" viewBox="0 0 48 48" id="stock"><path fill="#fff" d="M2 38h44v4H2z"></path><path fill="#fff" d="M4 2h6v36H4zM4 42h6v4H4zM44 38h-6V2h6zM44 46h-6v-4h6z"></path><path fill="#fff" d="M10 14h28v4H10z"></path><circle cx="7" cy="32" r="1" fill="#f8f9f9"></circle><circle cx="7" cy="26" r="1" fill="#f8f9f9"></circle><circle cx="7" cy="20" r="1" fill="#f8f9f9"></circle><circle cx="7" cy="14" r="1" fill="#f8f9f9"></circle><circle cx="7" cy="8" r="1" fill="#f8f9f9"></circle><circle cx="41" cy="32" r="1" fill="#f8f9f9"></circle><circle cx="41" cy="26" r="1" fill="#f8f9f9"></circle><circle cx="41" cy="20" r="1" fill="#f8f9f9"></circle><circle cx="41" cy="14" r="1" fill="#f8f9f9"></circle><circle cx="41" cy="8" r="1" fill="#f8f9f9"></circle><path fill="#f8f9f9" d="M10 30h8v8h-8z"></path><path fill="#6457ff" d="M13 31h2v2h-2z"></path><path fill="#bec6c6" d="M18 30h8v8h-8z"></path><path fill="#f8f9f9" d="M21 31h2v2h-2z"></path><path fill="#bec6c6" d="M18 6h8v8h-8z"></path><path fill="#f8f9f9" d="M21 7h2v2h-2zM30 30h8v8h-8z"></path><path fill="#bec6c6" d="M33 31h2v2h-2z"></path><path fill="#f8f9f9" d="M10 22h8v8h-8z"></path><path fill="#6457ff" d="M13 23h2v2h-2z"></path><path fill="#bec6c6" d="M26 6h8v8h-8z"></path><path fill="#f8f9f9" d="M29 7h2v2h-2z"></path><path fill="#414141" d="M46 37h-1V2a1 1 0 0 0-1-1h-6a1 1 0 0 0-1 1v11h-2V6a1 1 0 0 0-1-1H18a1 1 0 0 0-1 1v7h-6V2a1 1 0 0 0-1-1H4a1 1 0 0 0-1 1v35H2a1 1 0 0 0-1 1v4a1 1 0 0 0 1 1h1v3a1 1 0 0 0 1 1h6a1 1 0 0 0 1-1v-3h26v3a1 1 0 0 0 1 1h6a1 1 0 0 0 1-1v-3h1a1 1 0 0 0 1-1v-4a1 1 0 0 0-1-1ZM39 3h4v34h-4Zm-8 34v-6h6v6Zm-4 0v-7a1 1 0 0 0-1-1h-7v-7a1 1 0 0 0-1-1h-7v-2h26v10h-7a1 1 0 0 0-1 1v7Zm-16 0v-6h6v6Zm6-8h-6v-6h6Zm2 2h6v6h-6Zm14-18h-6V7h6ZM19 7h6v6h-6Zm18 8v2H11v-2ZM5 3h4v34H5Zm4 42H5v-2h4Zm34 0h-4v-2h4Zm2-4H3v-2h42Z"></path></svg>