<svg xmlns="http://www.w3.org/2000/svg"  viewBox="0 0 100 100" width="100px" height="100px" baseProfile="basic"><path fill="#99c0d3" d="M77.266,32.815c0,7.342,0,14.684,0,22.026c0,5.343,0,10.686,0,16.029	c0,3.682,1.766,9.993-1.311,12.882c-2.933,2.754-10.464,1.271-14.113,1.269c-5.865-0.004-11.731-0.002-17.596-0.002	c-4.512,0-9.023-0.001-13.535-0.006c-2.905-0.004-8.263,1.145-10.435-1.389c-2.028-2.331-1.003-7.97-1.015-10.897	c-0.023-5.198-0.067-10.397-0.121-15.595c-0.104-10.149-0.537-20.365-0.235-30.511c0.196-6.585-1.541-14.874,6.634-16.027	c5.319-0.75,10.579,0.962,15.876,0.962c3.428,0,6.855,0,10.283,0c0.61,0,3.855-0.455,4.31,0	C56.014,11.563,77.266,32.815,77.266,32.815z"/><path fill="#c4dceb" d="M75.799,29.815C69.673,25.28,64.977,18.665,58.914,13.84c-0.298-1.105-1.224-1.962-2.449-1.962	c-1.318,0-2.633,1.169-2.551,2.551c0.175,2.957,0.351,5.913,0.526,8.87c0.168,2.823-0.171,6.382,1.962,8.572	c1.884,1.934,4.668,2.18,7.206,2.39c2.886,0.238,5.781,0.344,8.677,0.331c0.396-0.002,0.77-0.107,1.109-0.277	c1.109,0.65,2.709,0.038,3.321-1.008C77.473,32.008,76.909,30.638,75.799,29.815z"/><path fill="#fea919" d="M90.046,75.851c0.266-5.312,0.309-10.624,0.122-15.953c-0.028-0.797-0.374-1.461-0.885-1.958	c-1.262-2.033-4.937-1.679-5.491,1.032c-0.581-0.3-1.301-0.431-2.135-0.294c-2.641,0.432-5.22,0.378-7.816-0.306	c-0.912-0.24-1.866-0.811-2.792-1.061c-1.167-2.681-5.881-2.341-5.736,1.11c0.191,3.79,0.431,7.581,0.597,11.373	c-0.07,4.018-0.017,8.035,0.127,12.052c0.03,0.826,0.324,1.464,0.755,1.936c0.198,0.612,0.613,1.173,1.316,1.566	c3.712,2.077,8.985,3.289,13.501,2.328c2.871-0.155,5.509-0.967,7.313-3.008C90.957,82.366,90.227,78.747,90.046,75.851z"/><path fill="#f2cc3a" d="M86.929,53.387c-0.701-0.391-1.467-0.686-2.269-0.874c-2.54-0.594-5.301-0.725-7.899-0.589	c-2.564,0.134-5.154,0.573-7.548,1.524c-1.092,0.434-2.269,0.862-3.053,1.777c-1.006,1.174-0.89,2.74,0.105,3.862	c0.221,0.249,0.461,0.408,0.708,0.503c0.211,0.161,0.449,0.3,0.715,0.412c1.952,0.821,4.33,1.029,6.418,1.259	c4.124,0.453,8.779,0.51,12.663-1.132c0.601-0.254,1.25-0.543,1.798-0.942c0.624-0.115,1.17-0.522,1.331-1.306	C90.397,55.455,88.931,54.132,86.929,53.387z"/><path fill="#f09215" d="M66.931,79.22c6.614,4.128,15.337,4.206,22.037,0.231c1.667-0.989,0.192-3.488-1.514-2.59	c-4.079,2.145-8.652,2.964-13.227,2.488c-0.813-0.085-1.492,0.75-1.5,1.5c-0.009,0.88,0.698,1.416,1.5,1.5	c5.092,0.53,10.218-0.518,14.742-2.897c-0.505-0.863-1.009-1.727-1.514-2.59c-5.814,3.449-13.279,3.345-19.009-0.231	C66.803,75.604,65.295,78.199,66.931,79.22L66.931,79.22z"/><path fill="#f09215" d="M66.671,72.741c7.249,3.332,15.65,3.216,22.787-0.372c1.725-0.867,0.208-3.456-1.514-2.59	c-6.101,3.067-13.546,3.227-19.758,0.372C66.443,69.35,64.917,71.934,66.671,72.741L66.671,72.741z"/><path fill="#f09215" d="M66.481,66.29c1.651,1.02,3.554,1.325,5.447,1.571c1.959,0.254,3.932,0.357,5.907,0.287	c3.952-0.14,7.869-0.914,11.575-2.289c1.794-0.666,1.018-3.567-0.798-2.893c-3.336,1.238-6.824,2.002-10.383,2.166	c-1.709,0.079-3.423,0.035-5.125-0.134c-1.726-0.171-3.608-0.372-5.109-1.299C66.348,62.682,64.839,65.276,66.481,66.29	L66.481,66.29z"/><path fill="#f2cc3a" d="M74.099,68.208c0.609-1.185,0.368-2.692-0.636-3.637c-0.379-0.357-0.808-0.591-1.264-0.76	c-1.025-0.628-2.128-0.969-3.296-1.13c-0.579-0.193-1.162-0.374-1.763-0.513c-1.778-0.412-3.626-0.645-5.451-0.673	c-1.83-0.029-3.674,0.165-5.468,0.521c-1.637,0.325-3.633,0.718-4.89,1.883c-1.018,0.943-1.326,2.298-0.963,3.478	c-0.194,0.429-0.305,0.919-0.282,1.481c0.042,1.025,0.084,2.051,0.126,3.076c-0.066,0.247-0.111,0.511-0.129,0.792	c-0.272,4.134-0.281,8.265-0.091,12.4c-0.444,1.44-0.049,3.134,1.506,4.021c0.078,0.044,0.169,0.086,0.249,0.13	c0.188,0.121,0.386,0.22,0.59,0.307c5.974,2.976,16.976,4.397,21-2.133c1.637-2.656,0.843-6.82,0.832-9.842	C74.159,74.475,74.182,71.34,74.099,68.208z"/><path fill="#fea919" d="M51.12,70.711c6.818,3.912,14.787,2.341,21.86,0.062c1.83-0.59,1.048-3.487-0.798-2.893	c-6.263,2.018-13.464,3.731-19.548,0.24C50.957,67.158,49.444,69.749,51.12,70.711L51.12,70.711z"/><path fill="#fea919" d="M50.765,78.349c1.607,1.011,3.54,1.399,5.39,1.709c1.909,0.319,3.841,0.494,5.777,0.483	c3.866-0.022,7.723-0.727,11.346-2.068c1.795-0.665,1.019-3.565-0.798-2.893c-3.265,1.209-6.679,1.897-10.163,1.957	c-1.664,0.029-3.338-0.06-4.984-0.31c-1.696-0.257-3.582-0.542-5.054-1.468C50.64,74.728,49.133,77.323,50.765,78.349L50.765,78.349	z"/><path fill="#fea919" d="M50.264,85.241c2.614,3.009,7.496,2.525,11.084,2.695c3.931,0.187,8.088,0.3,11.553-1.865	c1.634-1.021,0.129-3.618-1.514-2.59c-2.885,1.803-6.376,1.627-9.645,1.474c-1.848-0.086-3.709-0.12-5.551-0.285	c-1.42-0.127-2.835-0.434-3.805-1.55C51.117,81.66,49.002,83.789,50.264,85.241L50.264,85.241z"/><path d="M58.938,12.891c0.013-0.054-0.842-0.148-2.469-0.197c-1.628-0.054-4.03-0.095-7.123-0.107c-3.093-0.01-6.879,0-11.268,0.094	c-2.193,0.052-4.542,0.114-7.011,0.276c-1.235,0.091-2.497,0.173-3.668,0.517c-1.179,0.334-2.27,0.957-3.031,1.917	c-0.771,0.951-1.217,2.203-1.43,3.554c-0.227,1.35-0.255,2.796-0.237,4.282c0.021,1.489,0.1,3.029,0.108,4.628	c-0.012,1.571-0.023,3.171-0.035,4.797c-0.002,6.484,0.248,13.418,0.455,20.738c0.109,3.664,0.165,7.419,0.215,11.239	c0.026,1.913,0.052,3.846,0.079,5.797c0.046,2.002-0.013,3.985-0.018,5.952c-0.001,1.964,0.022,3.943,0.266,5.827	c0.127,0.928,0.316,1.857,0.629,2.569c0.039,0.08,0.074,0.197,0.114,0.247c0.04,0.048,0.075,0.098,0.106,0.151	c0.052,0.116,0.186,0.169,0.261,0.275c0.246,0.145,0.524,0.311,0.919,0.394c0.757,0.197,1.701,0.228,2.663,0.188	c0.969-0.04,1.974-0.15,3.021-0.256c0.524-0.053,1.064-0.104,1.632-0.135c0.62-0.025,1.107-0.015,1.639-0.017	c1.049,0,2.101,0,3.156,0c3.445,0.005,6.857,0.009,10.217,0.014c0.84,0.002,1.676,0.004,2.509,0.007l1.693,0.004l0.617,0.001	l0.537,0.072l0.532,0.075l0.266,0.037c0.057,0.037,0.023,0.19,0.037,0.247c0.003,0.283,0.039,0.602,0.021,1.005	c0.029,0.386-0.18,0.872-0.148,1.247c0.008,0.256,0.058,0.499,0.147,0.717c0.088,0.219,0.216,0.411,0.381,0.579	c0.084,0.083,0.177,0.16,0.276,0.235l0.161,0.102l0.24,0.127l0.084,0.05l0.383,0.196l0.512,0.24	c0.351,0.163,0.701,0.333,1.053,0.459c0.695,0.29,1.416,0.518,2.133,0.748c1.449,0.422,2.927,0.709,4.398,0.877	c2.921,0.294,5.926,0.095,8.298-1.138c0.301-0.144,0.598-0.293,0.852-0.497c0.255-0.2,0.56-0.344,0.777-0.581l0.696-0.664	l0.284-0.385c0.198-0.27,0.41-0.509,0.586-0.869l0.277-0.498c0.136-0.025,0.327,0.06,0.489,0.087l1.011,0.24l0.636,0.132	l0.513,0.093c0.685,0.115,1.37,0.194,2.053,0.234c0.682,0.04,1.361,0.041,2.03,0c0.334-0.022,0.666-0.054,0.995-0.096l1.129-0.177	c1.38-0.066,2.64-0.28,3.805-0.729c1.145-0.438,2.177-1.146,2.888-2.021c0.67-0.823,0.966-1.96,1.026-3.176	c0.073-1.217-0.045-2.487-0.14-3.783l-0.033-0.489l-0.015-0.247c0-0.073-0.02-0.164-0.01-0.327l0.027-0.937	c0.008-0.631,0.017-1.257,0.025-1.879c0.007-2.493,0.014-4.91,0.02-7.248c-0.008-1.166-0.017-2.312-0.025-3.437	c-0.01-0.56-0.02-1.115-0.03-1.665l-0.024-0.815c-0.009-0.267-0.041-0.56,0.04-0.716c-0.027-0.101-0.085-0.159-0.085-0.293	c0.127-0.107,0.035-0.189,0.052-0.274c-0.04-0.192,0.036-0.363,0.045-0.547c0.121-0.235,0.146-0.61,0.174-0.911	c0.005-0.312-0.017-0.617-0.102-0.898c-0.166-0.562-0.541-1.046-1.045-1.426c-0.247-0.194-0.531-0.354-0.818-0.505	c-0.148-0.069-0.293-0.144-0.447-0.204l-0.114-0.048c-0.067-0.029-0.12-0.045-0.174-0.079l-0.231-0.128	c-0.575-0.307-1.18-0.54-1.794-0.701c-1.268-0.326-2.539-0.515-3.764-0.625c-0.614-0.055-1.217-0.089-1.81-0.107	c-0.351-0.004-0.698-0.008-1.041-0.012c-0.378,0.005-0.751,0.011-1.121,0.016c0.252-12.367,0.397-19.513,0.397-19.513	s0.15,6.842,0.411,18.684c0.206-0.011,0.414-0.022,0.625-0.033c0.244-0.006,0.491-0.011,0.741-0.017	c0.607-0.004,1.23,0.008,1.866,0.041c1.271,0.068,2.593,0.215,3.953,0.515c0.698,0.157,1.393,0.397,2.063,0.726l0.233,0.118	c0.02,0.012,0.052,0.022,0.066,0.027l0.132,0.05c0.176,0.063,0.35,0.144,0.526,0.219c0.347,0.167,0.696,0.349,1.027,0.589	c0.662,0.461,1.272,1.156,1.555,2.021c0.27,0.884,0.261,1.738-0.007,2.642c-0.009,0.059-0.085,0.113-0.045,0.185	c0.019,0.073,0.022,0.105,0.032,0.197c0.043,0.403,0.057,0.649,0.077,0.928l0.051,0.833c0.027,0.555,0.055,1.116,0.083,1.681	c0.042,1.13,0.085,2.28,0.129,3.451c0.059,2.345,0.121,4.77,0.184,7.27c0.008,0.628,0.016,1.261,0.025,1.899l-0.003,0.973	l0.077,0.855c0.122,1.267,0.289,2.605,0.241,4.037c-0.038,1.407-0.347,3.033-1.372,4.368c-0.978,1.26-2.29,2.168-3.727,2.761	c-1.425,0.59-2.98,0.867-4.441,0.965l-0.414,0.085l-0.57,0.097c-0.381,0.056-0.764,0.1-1.148,0.133	c-0.768,0.063-1.541,0.075-2.313,0.044c-0.772-0.032-1.544-0.107-2.312-0.223l-0.575-0.094l-0.45-0.083	c-0.051-0.001-0.106-0.04-0.125,0.025l-0.051,0.084l-0.378,0.515l-0.91,0.904c-0.296,0.314-0.673,0.521-1.01,0.784	c-0.339,0.268-0.711,0.468-1.09,0.659c-1.498,0.796-3.137,1.27-4.777,1.466c-1.641,0.204-3.301,0.237-4.94,0.064	c-1.639-0.167-3.27-0.469-4.877-0.919c-0.798-0.245-1.6-0.492-2.386-0.811c-0.402-0.143-0.775-0.319-1.154-0.49l-0.581-0.267	l-0.688-0.361l0.084,0.05l-0.296-0.156l-0.353-0.222c-0.23-0.164-0.45-0.344-0.656-0.547c-0.409-0.407-0.745-0.905-0.968-1.442	c-0.225-0.537-0.344-1.108-0.365-1.673l-0.001-0.031c-1.1,0.003-2.211,0.006-3.33,0.009c-3.361,0.002-6.773,0.005-10.219,0.007	c-1.055-0.001-2.108-0.001-3.157-0.002c-0.518,0-1.078-0.006-1.503,0.012c-0.475,0.025-0.975,0.07-1.489,0.121	c-1.027,0.101-2.089,0.217-3.189,0.258c-1.101,0.034-2.245,0.026-3.482-0.293c-0.612-0.142-1.263-0.444-1.867-0.866	c-0.277-0.26-0.592-0.495-0.801-0.823l-0.319-0.487c-0.099-0.163-0.138-0.295-0.209-0.445c-0.495-1.165-0.675-2.259-0.821-3.33	c-0.258-2.137-0.256-4.184-0.238-6.198c0.025-2.013,0.104-3.975,0.082-5.881c-0.001-1.955-0.003-3.892-0.004-5.81	c0.003-3.839,0.007-7.581-0.036-11.232c-0.076-7.308-0.174-14.277-0.008-20.806c0.054-1.624,0.107-3.221,0.16-4.791	c0.007-1.566,0.013-3.103,0.019-4.611c0.025-1.53,0.094-3.057,0.391-4.558c0.282-1.49,0.842-2.994,1.86-4.172	c1.006-1.191,2.411-1.91,3.766-2.242c1.376-0.35,2.697-0.379,3.945-0.431c2.511-0.078,4.864-0.055,7.066-0.026	c4.402,0.07,8.188,0.212,11.282,0.353c3.093,0.143,5.493,0.293,7.119,0.423C58.1,12.7,58.953,12.837,58.938,12.891z"/><path fill="#3158a7" d="M45.59,50.502c0.025,0.097,0.041,0.152,0.048,0.171c-0.015-0.053-0.029-0.106-0.043-0.159 C45.594,50.51,45.592,50.506,45.59,50.502z"/><path fill="#3158a7" d="M45.667,50.915c-0.039,0.137-0.093,0.315-0.004,0.021c0.001-0.004,0.002-0.007,0.003-0.011 C45.667,50.922,45.666,50.918,45.667,50.915z"/><path fill="#3158a7" d="M42.067,42.285c-0.675-0.333-1.352-0.664-2.009-1.031c-0.31-0.173-0.607-0.364-0.91-0.547 c-0.092-0.055-0.173-0.125-0.263-0.182c0.641,0.403-0.098-0.106-0.216-0.221c-0.682-0.666-1.26-1.491-1.364-2.453 c-0.031-0.289-0.013-0.603,0.007-0.892c0.006-0.083,0.01-0.142,0.014-0.192c0.041-0.254,0.105-0.508,0.18-0.754 c0.037-0.121,0.081-0.239,0.125-0.358c-0.014,0.051,0.019-0.009,0.106-0.193c0.079-0.137,0.158-0.272,0.246-0.404 c0.165-0.236,0.179-0.255,0.041-0.056c0.1-0.115,0.205-0.225,0.315-0.331c0.027-0.026,0.283-0.221,0.336-0.268 c0.148-0.095,0.298-0.188,0.453-0.273c0.065-0.036,0.104-0.059,0.136-0.079c0.034-0.01,0.063-0.019,0.118-0.038 c0.294-0.1,0.592-0.178,0.896-0.241c0.041-0.008,0.059-0.013,0.089-0.019c0.019,0,0.039,0.001,0.082-0.002 c0.282-0.017,0.562-0.026,0.845-0.015c0.658,0.026,1.759,0.345,2.475,0.728c0.452,0.241,0.951,0.517,1.332,0.832 c-0.075-0.062,0.574,0.571,0.421,0.38c0.102,0.128,0.224,0.431,0.217,0.35c0.105,1.315,1.048,2.443,2.443,2.443 c1.24,0,2.548-1.12,2.443-2.443c-0.283-3.544-3.415-5.897-6.838-6.765c-0.033-0.557-0.05-1.115-0.016-1.672 c0.031-0.507,0.1-1.01,0.156-1.515c0.013-0.336-0.057-0.65-0.21-0.941c-0.099-0.303-0.267-0.565-0.505-0.786 c-0.221-0.238-0.483-0.407-0.786-0.505c-0.291-0.153-0.605-0.223-0.941-0.21c-0.632,0.028-1.287,0.236-1.727,0.715 c-0.127,0.165-0.255,0.33-0.382,0.494c-0.221,0.381-0.332,0.792-0.334,1.233c-0.056,0.504-0.125,1.008-0.156,1.515 c-0.03,0.497-0.017,0.995,0.007,1.492c-0.009,0.002-0.02,0.003-0.029,0.005c-4.796,1.024-7.707,6.438-6.007,11.049 c1.52,4.122,5.18,5.513,8.747,7.37c0.725,0.377,1.443,0.773,2.129,1.218c0.092,0.06,0.534,0.377,0.625,0.432 c0.319,0.268,0.597,0.576,0.912,0.845c0.024,0.021,0.034,0.026,0.052,0.04c0.007,0.014,0.008,0.019,0.017,0.035 c0.053,0.097,0.126,0.207,0.186,0.297c0.025,0.037,0.046,0.084,0.064,0.13c-0.008-0.03-0.014-0.055-0.024-0.095 c0.009,0.035,0.02,0.071,0.029,0.107c0.012,0.032,0.023,0.063,0.031,0.09c-0.013-0.088,0.041,0.06,0.048,0.202 c-0.013-0.047-0.024-0.091-0.031-0.121c-0.001-0.001-0.003-0.007-0.005-0.011c0.012,0.045,0.024,0.089,0.036,0.133 c0.002,0.039,0,0.076-0.007,0.109c0.007-0.026,0.014-0.048,0.019-0.067c0,0,0,0,0,0c-0.006,0.026-0.014,0.05-0.02,0.076 c0,0.001,0,0.002,0,0.002c-0.001,0.004-0.002,0.005-0.003,0.009c-0.036,0.147-0.07,0.294-0.117,0.44 c-0.001,0.003-0.001,0.003-0.002,0.006c-0.071,0.143-0.148,0.283-0.231,0.42c-0.385,0.637-0.896,1.077-1.733,1.516 c0.034-0.018-0.302,0.135-0.405,0.187c-0.139,0.043-0.509,0.167-0.592,0.19c-0.237,0.066-0.476,0.121-0.717,0.168 c-0.07,0.012-0.123,0.02-0.163,0.027c-0.136,0.013-0.272,0.025-0.409,0.032c-1.192,0.06-1.571,0.022-2.671-0.405 c-0.03-0.015-0.06-0.03-0.102-0.051c-0.247-0.125-0.484-0.268-0.714-0.422c-0.066-0.06-0.332-0.266-0.346-0.279 c-0.071-0.068-0.616-0.721-0.4-0.421c-0.77-1.069-2.126-1.588-3.342-0.876c-1.056,0.618-1.652,2.266-0.876,3.342 c1.559,2.164,3.911,3.482,6.442,3.882c0.018,0.785,0.045,1.571,0.006,2.357c-0.03,0.606,0.294,1.306,0.715,1.727 c0.424,0.424,1.119,0.743,1.727,0.715c0.632-0.028,1.287-0.236,1.727-0.715c0.451-0.491,0.682-1.055,0.715-1.727 c0.046-0.913,0.003-1.825-0.013-2.738c0.138-0.044,0.277-0.084,0.414-0.134c3.868-1.429,7.346-5.572,5.393-9.811 C48.546,45.274,44.946,43.704,42.067,42.285z M37.328,36.745C37.344,36.536,37.34,36.649,37.328,36.745L37.328,36.745z M38.645,53.528C38.74,53.572,38.854,53.633,38.645,53.528L38.645,53.528z M45.686,50.849c0.004-0.013,0.007-0.026,0.009-0.033 C45.692,50.827,45.689,50.838,45.686,50.849C45.686,50.849,45.686,50.849,45.686,50.849z"/><path fill="#3158a7" d="M45.626,50.604c0.002,0.016,0.009,0.046,0.017,0.081C45.648,50.691,45.642,50.658,45.626,50.604z"/></svg>